<svg width="80" height="80" viewBox="0 0 80 80" fill="none" xmlns="http://www.w3.org/2000/svg">
<g id="Parking-car 1">
<path id="Vector" d="M28.6982 23.3263H41.2968" stroke="#202526" stroke-width="1.5" stroke-linecap="round" stroke-linejoin="round"/>
<path id="Vector_2" d="M29.9964 40H19.9922V63.3431" stroke="#202526" stroke-width="1.5" stroke-linecap="round" stroke-linejoin="round"/>
<path id="Vector_3" d="M19.9922 63.343H6.65332V25.2004C6.65332 22.9126 7.89416 20.8048 9.89467 19.6948L31.9405 7.44639C33.8433 6.38913 36.157 6.38913 38.0597 7.44639L60.1056 19.6948C62.1043 20.8062 63.3436 22.9135 63.3436 25.2004V29.9958" stroke="#202526" stroke-width="1.5" stroke-linecap="round" stroke-linejoin="round"/>
<path id="Vector_4" d="M73.3477 59.3413C73.3477 55.6579 70.3617 52.6719 66.6783 52.6719H40.0005C36.3171 52.6719 33.3311 55.6579 33.3311 59.3413" stroke="#202526" stroke-width="1.5" stroke-linecap="round" stroke-linejoin="round"/>
<path id="Vector_5" d="M33.3311 59.3413V70.0124C33.3311 71.8541 34.8241 73.3471 36.6658 73.3471H39.9672C41.8089 73.3471 43.3019 71.8541 43.3019 70.0124V67.8082H63.3769V70.0124C63.3769 71.8541 64.8699 73.3471 66.7116 73.3471H70.013C71.8547 73.3471 73.3477 71.8541 73.3477 70.0124V59.3413" stroke="#202526" stroke-width="1.5" stroke-linecap="round" stroke-linejoin="round"/>
<path id="Vector_6" d="M45.792 60.3418H40.8066" stroke="#202526" stroke-width="1.5" stroke-linecap="round" stroke-linejoin="round"/>
<path id="Vector_7" d="M65.8712 60.3418H60.8857" stroke="#202526" stroke-width="1.5" stroke-linecap="round" stroke-linejoin="round"/>
<path id="Vector_8" d="M68.3623 52.4618L73.3477 49.9708" stroke="#202526" stroke-width="1.5" stroke-linecap="round" stroke-linejoin="round"/>
<path id="Vector_9" d="M38.3331 52.4618L33.3311 49.9708" stroke="#202526" stroke-width="1.5" stroke-linecap="round" stroke-linejoin="round"/>
<path id="Vector_10" d="M38.2598 52.8887L40.374 43.8516C40.9063 41.599 42.9147 40.0058 45.2293 40H61.4494C63.7641 40.0058 65.7724 41.599 66.3048 43.8516L68.419 52.8887" stroke="#202526" stroke-width="1.5" stroke-linecap="round" stroke-linejoin="round"/>
</g>
</svg>
