<svg width="80" height="80" viewBox="0 0 80 80" fill="none" xmlns="http://www.w3.org/2000/svg">
<g id="Wheel 1">
<path id="Vector" d="M65.2002 23.73C71.6002 33.63 71.5969 46.3767 65.2035 56.2733" stroke="#202526" stroke-width="1.5" stroke-linecap="round" stroke-linejoin="round"/>
<path id="Vector_2" d="M51.8259 28.1749C58.3567 34.7057 58.3567 45.2944 51.8259 51.8252C45.295 58.3561 34.7064 58.3561 28.1755 51.8252C21.6446 45.2944 21.6446 34.7057 28.1755 28.1749C34.7064 21.644 45.295 21.644 51.8259 28.1749Z" stroke="#202526" stroke-width="1.5" stroke-linecap="round" stroke-linejoin="round"/>
<path id="Vector_3" d="M47.7363 25.17L56.3497 14.7067C57.603 13.1834 59.8963 13.0734 61.293 14.4667L65.5363 18.71C66.933 20.1067 66.8197 22.4 65.2963 23.6534L54.833 32.2667" stroke="#202526" stroke-width="1.5" stroke-linecap="round" stroke-linejoin="round"/>
<path id="Vector_4" d="M32.2634 54.8298L23.65 65.2932C22.3967 66.8165 20.1034 66.9265 18.7067 65.5332L14.4634 61.2898C13.0667 59.8932 13.18 57.5998 14.7034 56.3465L25.1667 47.7332" stroke="#202526" stroke-width="1.5" stroke-linecap="round" stroke-linejoin="round"/>
<path id="Vector_5" d="M25.1697 32.2634L14.703 23.65C13.1797 22.3967 13.0697 20.1034 14.463 18.7067L18.7064 14.4634C20.103 13.0667 22.3964 13.18 23.6497 14.7034L32.263 25.1667" stroke="#202526" stroke-width="1.5" stroke-linecap="round" stroke-linejoin="round"/>
<path id="Vector_6" d="M54.8301 47.7367L65.2934 56.35C66.8167 57.6034 66.9267 59.8967 65.5334 61.2934L61.2901 65.5367C59.8934 66.9334 57.6001 66.82 56.3467 65.2967L47.7334 54.8334" stroke="#202526" stroke-width="1.5" stroke-linecap="round" stroke-linejoin="round"/>
<path id="Vector_7" d="M56.2728 65.2035C46.3762 71.5969 33.6262 71.6002 23.7295 65.2002" stroke="#202526" stroke-width="1.5" stroke-linecap="round" stroke-linejoin="round"/>
<path id="Vector_8" d="M14.7968 23.7267C8.40349 33.6234 8.40015 46.37 14.8001 56.27" stroke="#202526" stroke-width="1.5" stroke-linecap="round" stroke-linejoin="round"/>
<path id="Vector_9" d="M56.2699 14.8C46.3699 8.40002 33.6232 8.40335 23.7266 14.7967" stroke="#202526" stroke-width="1.5" stroke-linecap="round" stroke-linejoin="round"/>
</g>
</svg>
